<svg width="500" height="500" viewBox="0 0 500 500" fill="none" xmlns="http://www.w3.org/2000/svg">
<g clip-path="url(#clip0_5_19)">
<path d="M75.2 106H48V394H75.2V282.8L120.4 237.6L240.4 394H273.6L140 220.8L253.6 106H222.8L75.2 255.2V106Z" fill="black"/>
<path d="M336 394H366.8L480 106H452L418 196.4H286.8L253.6 106H225.6L336 394ZM352.4 370.8L296 219.6H408.8L352.4 370.8Z" fill="black"/>
<path d="M75.2 106H48V394H75.2V282.8L120.4 237.6L240.4 394H273.6L140 220.8L253.6 106H222.8L75.2 255.2V106Z" fill="black"/>
<path d="M336 394H366.8L480 106H452L418 196.4H286.8L253.6 106H225.6L336 394ZM352.4 370.8L296 219.6H408.8L352.4 370.8Z" fill="black"/>
</g>
<defs>
<clipPath id="clip0_5_19">
<rect width="500" height="500" fill="white"/>
</clipPath>
</defs>
</svg>
